# xmcd
# 
# Track frame offsets:
#     182
#     11130
#     21562
#     48022
#     60307
#     72700
#     90770
#     106937
#     117522
#     128472
#     144582
#     163847
#     181995
#     194720
#     209282
#     230655
#     246215
#     259052
#     276807
#     291525
# 
# Disc length: 4220
# 
# Revision: 4
# Processed by: cddbd v1.5.2PL0 Copyright (c) Steve Scherf et al.
# Submitted via: BonkEnc v1.0.5
# 
DISCID=2e107a14
DTITLE=Franklin, Aretha - Aretha's Best
DYEAR=2001
DGENRE=R&B
TTITLE0=Respect
TTITLE1=Think
TTITLE2=Freeway Of Love
TTITLE3=Baby, I Love You
TTITLE4=A Natural Woman (You Make Me Feel Like)
TTITLE5=Day Dreaming
TTITLE6=I Say A Little Prayer
TTITLE7=The House That Jack Built
TTITLE8=(Sweet Sweet Baby) Since You've Been Gone
TTITLE9=Spanish Harlem
TTITLE10=Jump To It
TTITLE11=I Knew You Were Waiting (For Me) - Arethra Franklin and GeorgeMichael
TTITLE12=Chain Of Fools
TTITLE13=Rock Steady
TTITLE14=Who's Zoomin' Who
TTITLE15=Until You Come Back To Me (That's What I'm Gonna Do)
TTITLE16=I Never Loved A Man (The Way I Love You)
TTITLE17=Call Me
TTITLE18=Do Right Woman-Do Right Man
TTITLE19=Bridge Over Troubled Water
EXTD=
EXTT0=
EXTT1=
EXTT2=
EXTT3=
EXTT4=
EXTT5=
EXTT6=
EXTT7=
EXTT8=
EXTT9=
EXTT10=
EXTT11=
EXTT12=
EXTT13=
EXTT14=
EXTT15=
EXTT16=
EXTT17=
EXTT18=
EXTT19=
PLAYORDER=
